<?xml version="1.0" encoding="UTF-8" standalone="no"?>
<!DOCTYPE svg PUBLIC "-//W3C//DTD SVG 1.1//EN" "http://www.w3.org/Graphics/SVG/1.1/DTD/svg11.dtd">
<svg width="100%" height="100%" viewBox="0 0 256 256" version="1.1" xmlns="http://www.w3.org/2000/svg" xmlns:xlink="http://www.w3.org/1999/xlink" xml:space="preserve" xmlns:serif="http://www.serif.com/" style="fill-rule:evenodd;clip-rule:evenodd;stroke-linejoin:round;stroke-miterlimit:2;">
    <g>
        <path d="M155.11,85.897C156.541,86.374 160.008,87.139 160.387,87.07C160.483,83.695 160.385,80.373 160.094,77.103C153.13,74.373 149.514,69.243 149.247,61.712C150.104,52.741 154.697,46.488 163.025,42.951C172.747,39.53 181.492,41.142 189.262,47.788C200.057,44.611 208.949,47.445 215.938,56.289C220.055,61.832 221.033,67.89 218.87,74.464C216.161,80.004 211.715,83.229 205.532,84.138C205.483,86.193 205.532,88.245 205.678,90.294C209.724,87.951 214.072,86.486 218.723,85.897C220.529,94.514 219.405,102.722 215.352,110.522C215.231,110.656 215.084,110.754 214.912,110.815C213.874,108.884 212.799,106.978 211.688,105.098C213.132,101.367 213.767,97.508 213.593,93.519C209.478,95.382 206.743,98.411 205.385,102.607C209.438,107.192 212.271,112.469 213.886,118.437C216.324,122.426 219.891,124.821 224.586,125.619C229.55,126.196 234.534,126.489 239.537,126.498C241.573,127.828 242.11,129.636 241.149,131.922C237.112,142.016 229.734,148.025 219.016,149.95C214.303,150.376 209.613,150.962 204.945,151.709C199.966,153.366 196.497,156.639 194.538,161.53C193.287,165.856 191.723,170.058 189.848,174.135C188.406,176.408 186.695,178.46 184.718,180.291C195.444,185.732 204.581,193.158 212.127,202.57C214.677,205.813 216.534,209.428 217.697,213.417C218.153,218.626 215.759,220.825 210.515,220.013C207.246,218.939 204.559,217.033 202.453,214.296C198.858,208.724 194.608,203.692 189.702,199.199C186.008,196.424 182.002,194.176 177.682,192.457C173.064,190.927 168.374,189.657 163.611,188.646C143.333,182.532 132.145,168.9 130.046,147.752C127.445,156.203 128.325,164.314 132.684,172.083C137.725,180.251 144.614,186.358 153.351,190.405C160.15,193.192 174.951,196.664 175.044,197C174.359,204.287 170.842,209.71 164.491,213.27C158.594,216.723 152.242,218.384 145.436,218.254C141.773,218.352 138.89,216.935 136.788,214.003C135.701,209.484 137.314,206.308 141.625,204.476C142.668,204.063 143.743,203.77 144.85,203.596C147.4,203.368 149.94,203.075 152.472,202.717C152.874,202.599 153.265,202.452 153.644,202.277C153.944,202.13 143.936,191.835 139.28,186.594C117.591,183.666 103.373,171.793 96.627,150.976C95.862,147.852 95.129,144.725 94.428,141.595C92.622,147.215 89.592,152.052 85.341,156.106C80.53,159.629 75.156,160.9 69.217,159.917C63.815,158.779 58.831,156.678 54.267,153.615C51.508,157.595 48.186,161.064 44.3,164.021C38.411,168.401 31.864,169.964 24.659,168.712C19.355,166.821 18.085,163.45 20.848,158.598C21.962,157.307 23.33,156.379 24.952,155.813C27.645,155.039 30.381,154.452 33.16,154.054C35.873,152.917 38.267,151.305 40.342,149.217C44.549,144.513 48.018,139.334 50.749,133.68C53.226,134.967 55.767,136.189 58.371,137.345C59.619,137.874 60.889,138.314 62.182,138.664C62.644,134.13 63.817,129.781 65.7,125.619C50.927,129.46 38.273,125.796 27.737,114.626C20.757,105.765 18.021,95.701 19.529,84.431C20.677,78.717 21.068,72.952 20.701,67.136C19.635,60.609 12.627,48.69 13.08,48.374C29.616,46.12 44.322,50.273 57.198,60.833C61.842,64.905 65.605,69.644 68.485,75.051C70.801,80.633 73.341,86.105 76.106,91.467C79.619,97.228 84.359,101.674 90.324,104.805C100.469,104.092 109.752,106.535 118.173,112.134C122.375,115.749 126.577,119.365 130.779,122.981C135.953,126.515 141.425,127.004 147.195,124.446C151.955,121.839 156.01,118.37 159.361,114.039C159.043,112.319 158.456,110.658 157.602,109.056C154.703,101.545 153.872,93.826 155.11,85.897ZM197.286,121.232C198.537,121.232 199.552,122.247 199.552,123.497C199.552,124.747 198.537,125.762 197.286,125.762C196.036,125.762 195.021,124.747 195.021,123.497C195.021,122.247 196.036,121.232 197.286,121.232Z" style="fill:rgb(217,101,38);"/>
    </g>
    <g transform="matrix(0.293149,0,0,0.293149,-26.2024,-20.9554)">
        <path d="M668.5,377.5C668.794,353.474 668.46,329.474 667.5,305.5C655.46,302.634 647.294,295.301 643,283.5C640.685,274.618 641.351,265.952 645,257.5C647.465,253.563 649.632,249.563 651.5,245.5C675.94,233.621 697.773,237.288 717,256.5C720.936,261.37 724.102,266.704 726.5,272.5C746.434,251.908 768.101,250.075 791.5,267C801.395,274.287 808.228,283.787 812,295.5C815.258,314.876 807.425,326.709 788.5,331C781.05,331.909 773.717,331.409 766.5,329.5C765.5,358.826 765.167,388.159 765.5,417.5C749.106,413.654 732.773,409.487 716.5,405C700.6,395.553 684.6,386.387 668.5,377.5Z" style="fill:rgb(241,245,247);"/>
    </g>
    <g transform="matrix(0.293149,0,0,0.293149,-26.2024,-20.9554)">
        <path d="M651.5,245.5C649.632,249.563 647.465,253.563 645,257.5C641.351,265.952 640.685,274.618 643,283.5C647.294,295.301 655.46,302.634 667.5,305.5C668.46,329.474 668.794,353.474 668.5,377.5C666.54,376.377 665.965,376.115 663.61,374.726C663.52,354.393 662.92,332.309 662.292,311.842C651.278,314.35 640.712,308.297 631,297.5C622.497,279.654 625.997,264.488 641.5,252C644.691,249.574 648.025,247.407 651.5,245.5Z" style="fill:rgb(179,179,179);"/>
    </g>
    <g transform="matrix(0.293149,0,0,0.293149,-26.2024,-20.9554)">
        <path d="M178.5,260.5C209.058,265.784 236.724,277.618 261.5,296C275.94,307.934 287.606,322.101 296.5,338.5C286.722,338.069 277.889,334.735 270,328.5C269.093,338.934 269.76,349.267 272,359.5C274.676,369.694 277.843,379.694 281.5,389.5C256.282,385.108 235.282,373.275 218.5,354C217.833,353.333 217.167,353.333 216.5,354C213.387,362.181 212.054,370.681 212.5,379.5C212.191,390.29 214.191,400.623 218.5,410.5C217.998,411.521 217.332,411.688 216.5,411C206.85,399.91 204.683,402.076 210,417.5C219.851,440.686 237.018,455.186 261.5,461C245.265,468.402 230.265,466.402 216.5,455C193.76,434.473 182.427,408.806 182.5,378C182.979,363.727 184.479,349.56 187,335.5C189.904,309.788 187.071,284.788 178.5,260.5Z" style="fill:rgb(241,245,248);"/>
    </g>
    <g transform="matrix(0.293149,0,0,0.293149,-26.2024,-20.9554)">
        <path d="M685.5,314.5C690.635,313.426 696.84,315.591 697,319.5C697.667,335.833 697.667,352.167 697,368.5C696.876,371.532 688.619,375.051 685.5,374C682.113,372.858 681.095,369.775 681,367.5C680.333,351.5 680.333,335.5 681,319.5C681.092,317.285 683.287,314.963 685.5,314.5Z" style="fill:rgb(128,128,128);"/>
    </g>
    <g transform="matrix(0.293149,0,0,0.293149,-26.2024,-20.9554)">
        <path d="M731.5,319.5C735.091,318.328 742.887,321.747 743.06,326.147C743.727,343.147 743.806,356.283 743.139,373.283C742.94,378.337 736.547,381.283 731.5,380C729.039,379.374 727.988,378.174 727.934,374.944C727.633,356.934 727.663,343.427 728.047,325.419C728.133,321.4 730.506,319.824 731.5,319.5Z" style="fill:rgb(128,128,128);"/>
    </g>
    <g transform="matrix(0.293149,0,0,0.293149,-26.2024,-20.9554)">
        <path d="M644.5,403.5C668.81,408.974 689.31,420.974 706,439.5C708.671,442.837 710.837,446.504 712.5,450.5C711.635,451.583 710.635,451.749 709.5,451C695.564,441.865 680.898,434.031 665.5,427.5C664.776,430.451 664.943,433.451 666,436.5C667.971,442.079 670.137,447.579 672.5,453C669.628,456.372 666.294,459.206 662.5,461.5C652.487,443.46 646.487,424.127 644.5,403.5Z" style="fill:rgb(241,244,247);"/>
    </g>
    <g transform="matrix(0.293149,0,0,0.293149,-26.2024,-20.9554)">
        <path d="M415.5,459.5C442.308,458.831 464.808,468.165 483,487.5C485.248,490.328 487.248,493.328 489,496.5C489.688,497.332 489.521,497.998 488.5,498.5C469.01,482.166 446.51,473.166 421,471.5C393.943,472.695 371.943,483.695 355,504.5C349.941,511.228 345.274,518.228 341,525.5C344.386,502.761 355.886,485.261 375.5,473C388.125,466.02 401.458,461.52 415.5,459.5Z" style="fill:rgb(240,243,245);"/>
    </g>
    <g transform="matrix(0.293149,0,0,0.293149,-26.2024,-20.9554)">
        <path d="M755.5,456.5C770.395,458.034 782.562,464.7 792,476.5C798.131,485.93 804.631,495.097 811.5,504C807.559,503.201 803.893,501.534 800.5,499C791.768,489.599 782.435,480.932 772.5,473C764.154,468.915 755.488,465.748 746.5,463.5C748.988,460.433 751.988,458.099 755.5,456.5Z" style="fill:rgb(242,244,246);"/>
    </g>
    <g transform="matrix(0.293149,0,0,0.293149,-26.2024,-20.9554)">
        <path d="M807.5,525.5C813.312,526.577 819.312,527.243 825.5,527.5C843.037,527.859 860.37,529.859 877.5,533.5C878.932,533.733 879.432,534.4 879,535.5C861.908,550.984 841.741,559.484 818.5,561C788.822,561.002 761.156,568.335 735.5,583C722.574,591.424 714.086,599.741 706.345,612.984C706.264,613.122 704.366,616.709 704.936,617.463C706.863,615.436 708.556,613.69 714.931,612.338C719.121,611.449 723.672,611.289 726.477,611.523C725.614,613.694 721.659,623.297 721.5,624.5C718.734,645.356 710.567,663.689 697,679.5C669.678,668.841 646.344,652.508 627,630.5C609.923,610.034 595.59,587.701 584,563.5C582.972,561.156 582.306,558.823 582,556.5C601.407,573.082 623.907,581.582 649.5,582C638.632,573.244 629.632,562.911 622.5,551C633.817,551.425 645.151,551.425 656.5,551C663.72,550.394 670.72,549.061 677.5,547C663.933,536.438 651.266,524.771 639.5,512C646.415,510.26 653.415,508.927 660.5,508C675.833,507.333 691.167,507.333 706.5,508C740.153,514.031 773.82,519.865 807.5,525.5Z" style="fill:rgb(241,245,248);"/>
    </g>
    <g transform="matrix(0.293149,0,0,0.293149,-26.2024,-20.9554)">
        <path d="M405.5,599.5C432.109,672.084 483.775,714.417 560.5,726.5C539.552,730.971 518.886,729.804 498.5,723C458.678,710.176 428.012,685.842 406.5,650C396.441,653.081 386.108,655.414 375.5,657C343.053,661.377 312.72,655.377 284.5,639C277.198,632.015 277.864,626.181 286.5,621.5C293.945,624.389 301.278,627.555 308.5,631C336.65,640.76 362.983,637.427 387.5,621C394.841,614.837 400.841,607.671 405.5,599.5Z" style="fill:rgb(217,101,38);"/>
    </g>
    <g transform="matrix(0.293149,0,0,0.293149,-26.2024,-20.9554)">
        <path d="M250.5,664.5C297.426,665.452 342.426,675.285 385.5,694C422.743,709.027 457.243,728.527 489,752.5C492.384,763.92 488.217,770.086 476.5,771C426.036,735.939 371.036,710.272 311.5,694C290.983,689.629 270.316,686.296 249.5,684C244.041,679.417 243.041,673.917 246.5,667.5C247.901,666.479 249.235,665.479 250.5,664.5Z" style="fill:rgb(128,128,128);"/>
    </g>
    <g transform="matrix(0.293149,0,0,0.293149,-26.2024,-20.9554)">
        <path d="M190.5,708.5C261.665,711.289 327.665,731.123 388.5,768C397.834,774.33 398.834,781.663 391.5,790C388.783,792.076 385.783,792.743 382.5,792C355.835,775.739 328.153,762.621 299.454,752.646C263.714,740.223 226.395,732.674 187.5,730C182.206,726.565 180.373,721.732 182,715.5C183.851,711.843 186.684,709.51 190.5,708.5Z" style="fill:rgb(128,128,128);"/>
    </g>
</svg>
