<?xml version="1.0" encoding="UTF-8" standalone="no"?>
<!DOCTYPE svg PUBLIC "-//W3C//DTD SVG 1.1//EN" "http://www.w3.org/Graphics/SVG/1.1/DTD/svg11.dtd">
<svg width="100%" height="100%" viewBox="0 0 1024 1024" version="1.1" xmlns="http://www.w3.org/2000/svg" xmlns:xlink="http://www.w3.org/1999/xlink" xml:space="preserve" xmlns:serif="http://www.serif.com/" style="fill-rule:evenodd;clip-rule:evenodd;stroke-linejoin:round;stroke-miterlimit:2;">
    <g>
        <path d="M-0.5,-0.5L1018.5,-0.5C1018.17,7.524 1017.5,15.524 1016.5,23.5C1015.52,20.914 1015.19,18.247 1015.5,15.5L943.5,15.5L943.5,10.5L935.5,10.5L935.5,13.5C918.165,16.034 900.832,16.034 883.5,13.5C874.256,15.27 864.923,15.937 855.5,15.5L855.5,10.5L839.5,10.5L839.5,15.5L807.5,15.5L807.5,10.5L799.5,10.5L799.5,15.5L415.5,15.5L415.5,10.5L391.5,10.5L391.5,15.5C372.788,15.943 354.121,15.276 335.5,13.5C327.548,14.828 319.548,15.494 311.5,15.5L311.5,10.5L287.5,10.5L287.5,15.5C258.109,16.032 228.775,15.365 199.5,13.5L199.5,10.5L167.5,10.5L167.5,15.5L151.5,15.5L151.5,18.5L135.5,18.5L135.5,15.5L63.5,15.5L63.5,10.5L31.5,10.5L31.5,15.5L23.5,15.5L23.5,23.5L15.5,23.5L15.5,55.5L18.5,55.5L18.5,71.5L15.5,71.5L15.5,95.5L18.5,95.5L18.5,159.5L15.5,159.5L15.5,167.5L18.5,167.5L18.5,191.5L23.5,191.5C23.491,199.568 22.824,207.568 21.5,215.5L18.5,215.5L18.5,327.5L23.5,327.5L23.5,335.5L18.5,335.5L18.5,359.5L21.5,359.5L21.5,367.5L18.5,367.5L18.5,391.5L15.5,391.5L15.5,399.5L18.5,399.5L18.5,407.5L23.5,407.5L23.5,423.5L18.5,423.5L18.5,487.5L23.5,487.5C23.942,506.232 23.275,524.899 21.5,543.5L18.5,543.5L18.5,551.5L15.5,551.5L15.5,559.5L18.5,559.5L18.5,599.5L21.5,599.5C23.365,628.775 24.032,658.109 23.5,687.5L18.5,687.5L18.5,735.5L15.5,735.5L15.5,767.5L18.5,767.5L18.5,839.5L15.5,839.5L15.5,847.5L18.5,847.5L18.5,871.5L23.5,871.5L23.5,887.5L18.5,887.5L18.5,959.5L21.5,959.5C23.162,972.762 23.829,986.096 23.5,999.5L55.5,999.5L55.5,996.5L63.5,996.5L63.5,991.5L79.5,991.5L79.5,996.5L103.5,996.5L103.5,999.5L119.5,999.5L119.5,996.5L191.5,996.5L191.5,999.5L271.5,999.5L271.5,996.5L279.5,996.5L279.5,999.5L351.5,999.5L351.5,996.5L391.5,996.5L391.5,999.5L415.5,999.5L415.5,996.5L423.5,996.5L423.5,999.5L431.5,999.5L431.5,996.5L487.5,996.5L487.5,999.5L511.5,999.5L511.5,996.5L527.5,996.5L527.5,999.5L567.5,999.5L567.5,1007.5L575.5,1007.5L575.5,1004.5L599.5,1004.5L599.5,999.5L615.5,999.5L615.5,996.5L639.5,996.5L639.5,999.5L671.5,999.5L671.5,996.5L679.5,996.5L679.5,999.5L687.5,999.5L687.5,996.5L695.5,996.5L695.5,999.5L711.5,999.5L711.5,996.5L735.5,996.5L735.5,999.5L751.5,999.5L751.5,1004.5L759.5,1004.5L759.5,999.5L775.5,999.5L775.5,996.5L783.5,996.5L783.5,999.5L855.5,999.5L855.5,996.5L863.5,996.5L863.5,999.5L871.5,999.5L871.5,996.5L911.5,996.5L911.5,999.5L919.5,999.5L919.5,996.5L967.5,996.5L967.5,999.5L983.5,999.5L983.5,996.5L991.5,996.5L991.5,999.5L1015.5,999.5C1015.19,996.753 1015.52,994.086 1016.5,991.5C1017.5,999.472 1017.83,1007.47 1017.5,1015.5L1021.5,1015.5C1020.96,1012.3 1021.63,1009.64 1023.5,1007.5L1023.5,1023.5L-0.5,1023.5L-0.5,-0.5Z" style="fill:rgb(243,247,250);"/>
    </g>
    <g>
        <path d="M618.5,364.5C623.382,366.128 635.209,368.737 636.5,368.5C636.828,356.988 636.495,345.654 635.5,334.5C611.745,325.189 599.412,307.689 598.5,282C601.423,251.397 617.09,230.064 645.5,218C678.663,206.33 708.496,211.83 735,234.5C771.825,223.663 802.158,233.33 826,263.5C840.044,282.407 843.378,303.074 836,325.5C826.758,344.397 811.592,355.397 790.5,358.5C790.334,365.508 790.5,372.508 791,379.5C804.8,371.507 819.633,366.507 835.5,364.5C841.659,393.893 837.826,421.893 824,448.5C823.586,448.957 823.086,449.291 822.5,449.5C818.957,442.912 815.29,436.412 811.5,430C816.427,417.272 818.594,404.106 818,390.5C803.964,396.855 794.631,407.189 790,421.5C803.825,437.142 813.491,455.142 819,475.5C827.317,489.11 839.484,497.277 855.5,500C872.433,501.968 889.433,502.968 906.5,503C913.446,507.536 915.279,513.703 912,521.5C898.228,555.934 873.061,576.434 836.5,583C820.423,584.451 804.423,586.451 788.5,589C771.515,594.651 759.681,605.817 753,622.5C748.73,637.259 743.397,651.592 737,665.5C732.079,673.255 726.245,680.255 719.5,686.5C756.09,705.06 787.257,730.394 813,762.5C821.697,773.56 828.031,785.893 832,799.5C833.556,817.271 825.39,824.771 807.5,822C796.348,818.337 787.181,811.837 780,802.5C767.736,783.491 753.236,766.325 736.5,751C723.902,741.532 710.235,733.865 695.5,728C679.745,722.782 663.745,718.449 647.5,715C578.327,694.144 540.161,647.644 533,575.5C524.129,604.331 527.129,631.997 542,658.5C559.195,686.363 582.695,707.196 612.5,721C635.693,730.508 686.182,742.353 686.5,743.5C684.164,768.355 672.164,786.855 650.5,799C630.384,810.778 608.718,816.445 585.5,816C573.005,816.335 563.171,811.502 556,801.5C552.292,786.083 557.792,775.249 572.5,769C576.057,767.592 579.724,766.592 583.5,766C592.198,765.22 600.865,764.22 609.5,763C610.872,762.598 612.205,762.098 613.5,761.5C614.521,760.998 580.382,725.88 564.5,708C490.513,698.012 442.013,657.512 419,586.5C416.391,575.842 413.891,565.175 411.5,554.5C405.337,573.669 395.004,590.169 380.5,604C364.09,616.018 345.757,620.351 325.5,617C307.07,613.116 290.07,605.949 274.5,595.5C265.089,609.08 253.755,620.913 240.5,631C220.413,645.939 198.079,651.272 173.5,647C155.408,640.55 151.075,629.05 160.5,612.5C164.301,608.096 168.968,604.93 174.5,603C183.685,600.358 193.018,598.358 202.5,597C211.755,593.122 219.922,587.622 227,580.5C241.349,564.453 253.182,546.787 262.5,527.5C270.95,531.89 279.617,536.057 288.5,540C292.756,541.807 297.089,543.307 301.5,544.5C303.076,529.032 307.076,514.199 313.5,500C263.107,513.104 219.941,500.604 184,462.5C160.19,432.275 150.857,397.942 156,359.5C159.916,340.007 161.249,320.34 160,300.5C156.363,278.235 132.457,237.577 134,236.5C190.411,228.809 240.577,242.976 284.5,279C300.342,292.891 313.176,309.058 323,327.5C330.901,346.541 339.567,365.208 349,383.5C360.983,403.151 377.15,418.318 397.5,429C432.107,426.567 463.774,434.9 492.5,454C506.833,466.333 521.167,478.667 535.5,491C553.151,503.057 571.817,504.724 591.5,496C607.737,487.105 621.571,475.272 633,460.5C631.915,454.632 629.915,448.966 627,443.5C617.111,417.879 614.278,391.546 618.5,364.5Z" style="fill:rgb(217,101,38);"/>
        <g transform="matrix(0.791826,0,0,0.791826,-11.0023,122.918)">
            <circle cx="976.7" cy="467.077" r="9.758" style="fill:white;"/>
        </g>
    </g>
    <g>
        <path d="M668.5,377.5C668.794,353.474 668.46,329.474 667.5,305.5C655.46,302.634 647.294,295.301 643,283.5C640.685,274.618 641.351,265.952 645,257.5C647.465,253.563 649.632,249.563 651.5,245.5C675.94,233.621 697.773,237.288 717,256.5C720.936,261.37 724.102,266.704 726.5,272.5C746.434,251.908 768.101,250.075 791.5,267C801.395,274.287 808.228,283.787 812,295.5C815.258,314.876 807.425,326.709 788.5,331C781.05,331.909 773.717,331.409 766.5,329.5C765.5,358.826 765.167,388.159 765.5,417.5C749.106,413.654 732.773,409.487 716.5,405C700.6,395.553 684.6,386.387 668.5,377.5Z" style="fill:rgb(241,245,247);"/>
    </g>
    <g>
        <path d="M651.5,245.5C649.632,249.563 647.465,253.563 645,257.5C641.351,265.952 640.685,274.618 643,283.5C647.294,295.301 655.46,302.634 667.5,305.5C668.46,329.474 668.794,353.474 668.5,377.5C666.54,376.377 665.965,376.115 663.61,374.726C663.52,354.393 662.92,332.309 662.292,311.842C651.278,314.35 640.712,308.297 631,297.5C622.497,279.654 625.997,264.488 641.5,252C644.691,249.574 648.025,247.407 651.5,245.5Z" style="fill:rgb(170,172,173);"/>
    </g>
    <g>
        <path d="M178.5,260.5C209.058,265.784 236.724,277.618 261.5,296C275.94,307.934 287.606,322.101 296.5,338.5C286.722,338.069 277.889,334.735 270,328.5C269.093,338.934 269.76,349.267 272,359.5C274.676,369.694 277.843,379.694 281.5,389.5C256.282,385.108 235.282,373.275 218.5,354C217.833,353.333 217.167,353.333 216.5,354C213.387,362.181 212.054,370.681 212.5,379.5C212.191,390.29 214.191,400.623 218.5,410.5C217.998,411.521 217.332,411.688 216.5,411C206.85,399.91 204.683,402.076 210,417.5C219.851,440.686 237.018,455.186 261.5,461C245.265,468.402 230.265,466.402 216.5,455C193.76,434.473 182.427,408.806 182.5,378C182.979,363.727 184.479,349.56 187,335.5C189.904,309.788 187.071,284.788 178.5,260.5Z" style="fill:rgb(241,245,248);"/>
    </g>
    <g>
        <path d="M685.5,314.5C690.635,313.426 696.84,315.591 697,319.5C697.667,335.833 697.667,352.167 697,368.5C696.876,371.532 688.619,375.051 685.5,374C682.113,372.858 681.095,369.775 681,367.5C680.333,351.5 680.333,335.5 681,319.5C681.092,317.285 683.287,314.963 685.5,314.5Z" style="fill:rgb(128,128,128);"/>
    </g>
    <g>
        <path d="M731.5,319.5C735.091,318.328 742.887,321.747 743.06,326.147C743.727,343.147 743.806,356.283 743.139,373.283C742.94,378.337 736.547,381.283 731.5,380C729.039,379.374 727.988,378.174 727.934,374.944C727.633,356.934 727.663,343.427 728.047,325.419C728.133,321.4 730.506,319.824 731.5,319.5Z" style="fill:rgb(128,128,128);"/>
    </g>
    <g>
        <path d="M644.5,403.5C668.81,408.974 689.31,420.974 706,439.5C708.671,442.837 710.837,446.504 712.5,450.5C711.635,451.583 710.635,451.749 709.5,451C695.564,441.865 680.898,434.031 665.5,427.5C664.776,430.451 664.943,433.451 666,436.5C667.971,442.079 670.137,447.579 672.5,453C669.628,456.372 666.294,459.206 662.5,461.5C652.487,443.46 646.487,424.127 644.5,403.5Z" style="fill:rgb(241,244,247);"/>
    </g>
    <g>
        <path d="M415.5,459.5C442.308,458.831 464.808,468.165 483,487.5C485.248,490.328 487.248,493.328 489,496.5C489.688,497.332 489.521,497.998 488.5,498.5C469.01,482.166 446.51,473.166 421,471.5C393.943,472.695 371.943,483.695 355,504.5C349.941,511.228 345.274,518.228 341,525.5C344.386,502.761 355.886,485.261 375.5,473C388.125,466.02 401.458,461.52 415.5,459.5Z" style="fill:rgb(240,243,245);"/>
    </g>
    <g>
        <path d="M755.5,456.5C770.395,458.034 782.562,464.7 792,476.5C798.131,485.93 804.631,495.097 811.5,504C807.559,503.201 803.893,501.534 800.5,499C791.768,489.599 782.435,480.932 772.5,473C764.154,468.915 755.488,465.748 746.5,463.5C748.988,460.433 751.988,458.099 755.5,456.5Z" style="fill:rgb(242,244,246);"/>
    </g>
    <g>
        <path d="M807.5,525.5C813.312,526.577 819.312,527.243 825.5,527.5C843.037,527.859 860.37,529.859 877.5,533.5C878.932,533.733 879.432,534.4 879,535.5C861.908,550.984 841.741,559.484 818.5,561C788.822,561.002 761.156,568.335 735.5,583C722.574,591.424 714.086,599.741 706.345,612.984C706.264,613.122 704.366,616.709 704.936,617.463C706.863,615.436 708.556,613.69 714.931,612.338C719.121,611.449 723.672,611.289 726.477,611.523C725.614,613.694 721.659,623.297 721.5,624.5C718.734,645.356 710.567,663.689 697,679.5C669.678,668.841 646.344,652.508 627,630.5C609.923,610.034 595.59,587.701 584,563.5C582.972,561.156 582.306,558.823 582,556.5C601.407,573.082 623.907,581.582 649.5,582C638.632,573.244 629.632,562.911 622.5,551C633.817,551.425 645.151,551.425 656.5,551C663.72,550.394 670.72,549.061 677.5,547C663.933,536.438 651.266,524.771 639.5,512C646.415,510.26 653.415,508.927 660.5,508C675.833,507.333 691.167,507.333 706.5,508C740.153,514.031 773.82,519.865 807.5,525.5Z" style="fill:rgb(241,245,248);"/>
    </g>
    <g>
        <path d="M405.5,599.5C432.109,672.084 483.775,714.417 560.5,726.5C539.552,730.971 518.886,729.804 498.5,723C458.678,710.176 428.012,685.842 406.5,650C396.441,653.081 386.108,655.414 375.5,657C343.053,661.377 312.72,655.377 284.5,639C277.198,632.015 277.864,626.181 286.5,621.5C293.945,624.389 301.278,627.555 308.5,631C336.65,640.76 362.983,637.427 387.5,621C394.841,614.837 400.841,607.671 405.5,599.5Z" style="fill:rgb(217,101,38);"/>
    </g>
    <g>
        <path d="M250.5,664.5C297.426,665.452 342.426,675.285 385.5,694C422.743,709.027 457.243,728.527 489,752.5C492.384,763.92 488.217,770.086 476.5,771C426.036,735.939 371.036,710.272 311.5,694C290.983,689.629 270.316,686.296 249.5,684C244.041,679.417 243.041,673.917 246.5,667.5C247.901,666.479 249.235,665.479 250.5,664.5Z" style="fill:rgb(128,128,128);"/>
    </g>
    <g>
        <path d="M190.5,708.5C261.665,711.289 327.665,731.123 388.5,768C397.834,774.33 398.834,781.663 391.5,790C388.783,792.076 385.783,792.743 382.5,792C355.835,775.739 328.153,762.621 299.454,752.646C263.714,740.223 226.395,732.674 187.5,730C182.206,726.565 180.373,721.732 182,715.5C183.851,711.843 186.684,709.51 190.5,708.5Z" style="fill:rgb(128,128,128);"/>
    </g>
</svg>
