<?xml version="1.0" encoding="UTF-8"?>
<!DOCTYPE svg PUBLIC "-//W3C//DTD SVG 1.1//EN" "http://www.w3.org/Graphics/SVG/1.1/DTD/svg11.dtd">
<svg xmlns="http://www.w3.org/2000/svg" version="1.1" width="1024px" height="1024px" style="shape-rendering:geometricPrecision; text-rendering:geometricPrecision; image-rendering:optimizeQuality; fill-rule:evenodd; clip-rule:evenodd" xmlns:xlink="http://www.w3.org/1999/xlink">
<g><path style="opacity:1" fill="#f3f7fa" d="M -0.5,-0.5 C 339.167,-0.5 678.833,-0.5 1018.5,-0.5C 1018.17,7.52417 1017.5,15.5242 1016.5,23.5C 1015.52,20.9135 1015.19,18.2469 1015.5,15.5C 991.5,15.5 967.5,15.5 943.5,15.5C 943.5,13.8333 943.5,12.1667 943.5,10.5C 940.833,10.5 938.167,10.5 935.5,10.5C 935.5,11.5 935.5,12.5 935.5,13.5C 918.165,16.0335 900.832,16.0335 883.5,13.5C 874.256,15.2702 864.923,15.9369 855.5,15.5C 855.5,13.8333 855.5,12.1667 855.5,10.5C 850.167,10.5 844.833,10.5 839.5,10.5C 839.5,12.1667 839.5,13.8333 839.5,15.5C 828.833,15.5 818.167,15.5 807.5,15.5C 807.5,13.8333 807.5,12.1667 807.5,10.5C 804.833,10.5 802.167,10.5 799.5,10.5C 799.5,12.1667 799.5,13.8333 799.5,15.5C 671.5,15.5 543.5,15.5 415.5,15.5C 415.5,13.8333 415.5,12.1667 415.5,10.5C 407.5,10.5 399.5,10.5 391.5,10.5C 391.5,12.1667 391.5,13.8333 391.5,15.5C 372.788,15.9425 354.121,15.2759 335.5,13.5C 327.548,14.8276 319.548,15.4943 311.5,15.5C 311.5,13.8333 311.5,12.1667 311.5,10.5C 303.5,10.5 295.5,10.5 287.5,10.5C 287.5,12.1667 287.5,13.8333 287.5,15.5C 258.109,16.0318 228.775,15.3651 199.5,13.5C 199.5,12.5 199.5,11.5 199.5,10.5C 188.833,10.5 178.167,10.5 167.5,10.5C 167.5,12.1667 167.5,13.8333 167.5,15.5C 162.167,15.5 156.833,15.5 151.5,15.5C 151.5,16.5 151.5,17.5 151.5,18.5C 146.167,18.5 140.833,18.5 135.5,18.5C 135.5,17.5 135.5,16.5 135.5,15.5C 111.5,15.5 87.5,15.5 63.5,15.5C 63.5,13.8333 63.5,12.1667 63.5,10.5C 52.8333,10.5 42.1667,10.5 31.5,10.5C 31.5,12.1667 31.5,13.8333 31.5,15.5C 28.8333,15.5 26.1667,15.5 23.5,15.5C 23.5,18.1667 23.5,20.8333 23.5,23.5C 20.8333,23.5 18.1667,23.5 15.5,23.5C 15.5,34.1667 15.5,44.8333 15.5,55.5C 16.5,55.5 17.5,55.5 18.5,55.5C 18.5,60.8333 18.5,66.1667 18.5,71.5C 17.5,71.5 16.5,71.5 15.5,71.5C 15.5,79.5 15.5,87.5 15.5,95.5C 16.5,95.5 17.5,95.5 18.5,95.5C 18.5,116.833 18.5,138.167 18.5,159.5C 17.5,159.5 16.5,159.5 15.5,159.5C 15.5,162.167 15.5,164.833 15.5,167.5C 16.5,167.5 17.5,167.5 18.5,167.5C 18.5,175.5 18.5,183.5 18.5,191.5C 20.1667,191.5 21.8333,191.5 23.5,191.5C 23.4909,199.568 22.8243,207.568 21.5,215.5C 20.5,215.5 19.5,215.5 18.5,215.5C 18.5,252.833 18.5,290.167 18.5,327.5C 20.1667,327.5 21.8333,327.5 23.5,327.5C 23.5,330.167 23.5,332.833 23.5,335.5C 21.8333,335.5 20.1667,335.5 18.5,335.5C 18.5,343.5 18.5,351.5 18.5,359.5C 19.5,359.5 20.5,359.5 21.5,359.5C 21.5,362.167 21.5,364.833 21.5,367.5C 20.5,367.5 19.5,367.5 18.5,367.5C 18.5,375.5 18.5,383.5 18.5,391.5C 17.5,391.5 16.5,391.5 15.5,391.5C 15.5,394.167 15.5,396.833 15.5,399.5C 16.5,399.5 17.5,399.5 18.5,399.5C 18.5,402.167 18.5,404.833 18.5,407.5C 20.1667,407.5 21.8333,407.5 23.5,407.5C 23.5,412.833 23.5,418.167 23.5,423.5C 21.8333,423.5 20.1667,423.5 18.5,423.5C 18.5,444.833 18.5,466.167 18.5,487.5C 20.1667,487.5 21.8333,487.5 23.5,487.5C 23.9416,506.232 23.2749,524.899 21.5,543.5C 20.5,543.5 19.5,543.5 18.5,543.5C 18.5,546.167 18.5,548.833 18.5,551.5C 17.5,551.5 16.5,551.5 15.5,551.5C 15.5,554.167 15.5,556.833 15.5,559.5C 16.5,559.5 17.5,559.5 18.5,559.5C 18.5,572.833 18.5,586.167 18.5,599.5C 19.5,599.5 20.5,599.5 21.5,599.5C 23.3651,628.775 24.0318,658.109 23.5,687.5C 21.8333,687.5 20.1667,687.5 18.5,687.5C 18.5,703.5 18.5,719.5 18.5,735.5C 17.5,735.5 16.5,735.5 15.5,735.5C 15.5,746.167 15.5,756.833 15.5,767.5C 16.5,767.5 17.5,767.5 18.5,767.5C 18.5,791.5 18.5,815.5 18.5,839.5C 17.5,839.5 16.5,839.5 15.5,839.5C 15.5,842.167 15.5,844.833 15.5,847.5C 16.5,847.5 17.5,847.5 18.5,847.5C 18.5,855.5 18.5,863.5 18.5,871.5C 20.1667,871.5 21.8333,871.5 23.5,871.5C 23.5,876.833 23.5,882.167 23.5,887.5C 21.8333,887.5 20.1667,887.5 18.5,887.5C 18.5,911.5 18.5,935.5 18.5,959.5C 19.5,959.5 20.5,959.5 21.5,959.5C 23.162,972.762 23.8286,986.096 23.5,999.5C 34.1667,999.5 44.8333,999.5 55.5,999.5C 55.5,998.5 55.5,997.5 55.5,996.5C 58.1667,996.5 60.8333,996.5 63.5,996.5C 63.5,994.833 63.5,993.167 63.5,991.5C 68.8333,991.5 74.1667,991.5 79.5,991.5C 79.5,993.167 79.5,994.833 79.5,996.5C 87.5,996.5 95.5,996.5 103.5,996.5C 103.5,997.5 103.5,998.5 103.5,999.5C 108.833,999.5 114.167,999.5 119.5,999.5C 119.5,998.5 119.5,997.5 119.5,996.5C 143.5,996.5 167.5,996.5 191.5,996.5C 191.5,997.5 191.5,998.5 191.5,999.5C 218.167,999.5 244.833,999.5 271.5,999.5C 271.5,998.5 271.5,997.5 271.5,996.5C 274.167,996.5 276.833,996.5 279.5,996.5C 279.5,997.5 279.5,998.5 279.5,999.5C 303.5,999.5 327.5,999.5 351.5,999.5C 351.5,998.5 351.5,997.5 351.5,996.5C 364.833,996.5 378.167,996.5 391.5,996.5C 391.5,997.5 391.5,998.5 391.5,999.5C 399.5,999.5 407.5,999.5 415.5,999.5C 415.5,998.5 415.5,997.5 415.5,996.5C 418.167,996.5 420.833,996.5 423.5,996.5C 423.5,997.5 423.5,998.5 423.5,999.5C 426.167,999.5 428.833,999.5 431.5,999.5C 431.5,998.5 431.5,997.5 431.5,996.5C 450.167,996.5 468.833,996.5 487.5,996.5C 487.5,997.5 487.5,998.5 487.5,999.5C 495.5,999.5 503.5,999.5 511.5,999.5C 511.5,998.5 511.5,997.5 511.5,996.5C 516.833,996.5 522.167,996.5 527.5,996.5C 527.5,997.5 527.5,998.5 527.5,999.5C 540.833,999.5 554.167,999.5 567.5,999.5C 567.5,1002.17 567.5,1004.83 567.5,1007.5C 570.167,1007.5 572.833,1007.5 575.5,1007.5C 575.5,1006.5 575.5,1005.5 575.5,1004.5C 583.5,1004.5 591.5,1004.5 599.5,1004.5C 599.5,1002.83 599.5,1001.17 599.5,999.5C 604.833,999.5 610.167,999.5 615.5,999.5C 615.5,998.5 615.5,997.5 615.5,996.5C 623.5,996.5 631.5,996.5 639.5,996.5C 639.5,997.5 639.5,998.5 639.5,999.5C 650.167,999.5 660.833,999.5 671.5,999.5C 671.5,998.5 671.5,997.5 671.5,996.5C 674.167,996.5 676.833,996.5 679.5,996.5C 679.5,997.5 679.5,998.5 679.5,999.5C 682.167,999.5 684.833,999.5 687.5,999.5C 687.5,998.5 687.5,997.5 687.5,996.5C 690.167,996.5 692.833,996.5 695.5,996.5C 695.5,997.5 695.5,998.5 695.5,999.5C 700.833,999.5 706.167,999.5 711.5,999.5C 711.5,998.5 711.5,997.5 711.5,996.5C 719.5,996.5 727.5,996.5 735.5,996.5C 735.5,997.5 735.5,998.5 735.5,999.5C 740.833,999.5 746.167,999.5 751.5,999.5C 751.5,1001.17 751.5,1002.83 751.5,1004.5C 754.167,1004.5 756.833,1004.5 759.5,1004.5C 759.5,1002.83 759.5,1001.17 759.5,999.5C 764.833,999.5 770.167,999.5 775.5,999.5C 775.5,998.5 775.5,997.5 775.5,996.5C 778.167,996.5 780.833,996.5 783.5,996.5C 783.5,997.5 783.5,998.5 783.5,999.5C 807.5,999.5 831.5,999.5 855.5,999.5C 855.5,998.5 855.5,997.5 855.5,996.5C 858.167,996.5 860.833,996.5 863.5,996.5C 863.5,997.5 863.5,998.5 863.5,999.5C 866.167,999.5 868.833,999.5 871.5,999.5C 871.5,998.5 871.5,997.5 871.5,996.5C 884.833,996.5 898.167,996.5 911.5,996.5C 911.5,997.5 911.5,998.5 911.5,999.5C 914.167,999.5 916.833,999.5 919.5,999.5C 919.5,998.5 919.5,997.5 919.5,996.5C 935.5,996.5 951.5,996.5 967.5,996.5C 967.5,997.5 967.5,998.5 967.5,999.5C 972.833,999.5 978.167,999.5 983.5,999.5C 983.5,998.5 983.5,997.5 983.5,996.5C 986.167,996.5 988.833,996.5 991.5,996.5C 991.5,997.5 991.5,998.5 991.5,999.5C 999.5,999.5 1007.5,999.5 1015.5,999.5C 1015.19,996.753 1015.52,994.086 1016.5,991.5C 1017.5,999.472 1017.83,1007.47 1017.5,1015.5C 1018.83,1015.5 1020.17,1015.5 1021.5,1015.5C 1020.96,1012.3 1021.63,1009.64 1023.5,1007.5C 1023.5,1012.83 1023.5,1018.17 1023.5,1023.5C 682.167,1023.5 340.833,1023.5 -0.5,1023.5C -0.5,682.167 -0.5,340.833 -0.5,-0.5 Z"/></g>
<g><path style="opacity:1" fill="#f1f5f8" d="M 1018.5,-0.5 C 1020.17,-0.5 1021.83,-0.5 1023.5,-0.5C 1023.5,335.5 1023.5,671.5 1023.5,1007.5C 1021.63,1009.64 1020.96,1012.3 1021.5,1015.5C 1020.17,1015.5 1018.83,1015.5 1017.5,1015.5C 1017.83,1007.47 1017.5,999.472 1016.5,991.5C 1015.52,994.086 1015.19,996.753 1015.5,999.5C 1007.5,999.5 999.5,999.5 991.5,999.5C 991.5,998.5 991.5,997.5 991.5,996.5C 988.833,996.5 986.167,996.5 983.5,996.5C 983.5,997.5 983.5,998.5 983.5,999.5C 978.167,999.5 972.833,999.5 967.5,999.5C 967.5,998.5 967.5,997.5 967.5,996.5C 951.5,996.5 935.5,996.5 919.5,996.5C 919.5,997.5 919.5,998.5 919.5,999.5C 916.833,999.5 914.167,999.5 911.5,999.5C 911.5,998.5 911.5,997.5 911.5,996.5C 898.167,996.5 884.833,996.5 871.5,996.5C 871.5,997.5 871.5,998.5 871.5,999.5C 868.833,999.5 866.167,999.5 863.5,999.5C 863.5,998.5 863.5,997.5 863.5,996.5C 860.833,996.5 858.167,996.5 855.5,996.5C 855.5,997.5 855.5,998.5 855.5,999.5C 831.5,999.5 807.5,999.5 783.5,999.5C 783.5,998.5 783.5,997.5 783.5,996.5C 780.833,996.5 778.167,996.5 775.5,996.5C 775.5,997.5 775.5,998.5 775.5,999.5C 770.167,999.5 764.833,999.5 759.5,999.5C 759.5,1001.17 759.5,1002.83 759.5,1004.5C 756.833,1004.5 754.167,1004.5 751.5,1004.5C 751.5,1002.83 751.5,1001.17 751.5,999.5C 746.167,999.5 740.833,999.5 735.5,999.5C 735.5,998.5 735.5,997.5 735.5,996.5C 727.5,996.5 719.5,996.5 711.5,996.5C 711.5,997.5 711.5,998.5 711.5,999.5C 706.167,999.5 700.833,999.5 695.5,999.5C 695.5,998.5 695.5,997.5 695.5,996.5C 692.833,996.5 690.167,996.5 687.5,996.5C 687.5,997.5 687.5,998.5 687.5,999.5C 684.833,999.5 682.167,999.5 679.5,999.5C 679.5,998.5 679.5,997.5 679.5,996.5C 676.833,996.5 674.167,996.5 671.5,996.5C 671.5,997.5 671.5,998.5 671.5,999.5C 660.833,999.5 650.167,999.5 639.5,999.5C 639.5,998.5 639.5,997.5 639.5,996.5C 631.5,996.5 623.5,996.5 615.5,996.5C 615.5,997.5 615.5,998.5 615.5,999.5C 610.167,999.5 604.833,999.5 599.5,999.5C 599.5,1001.17 599.5,1002.83 599.5,1004.5C 591.5,1004.5 583.5,1004.5 575.5,1004.5C 575.5,1005.5 575.5,1006.5 575.5,1007.5C 572.833,1007.5 570.167,1007.5 567.5,1007.5C 567.5,1004.83 567.5,1002.17 567.5,999.5C 554.167,999.5 540.833,999.5 527.5,999.5C 527.5,998.5 527.5,997.5 527.5,996.5C 522.167,996.5 516.833,996.5 511.5,996.5C 511.5,997.5 511.5,998.5 511.5,999.5C 503.5,999.5 495.5,999.5 487.5,999.5C 487.5,998.5 487.5,997.5 487.5,996.5C 468.833,996.5 450.167,996.5 431.5,996.5C 431.5,997.5 431.5,998.5 431.5,999.5C 428.833,999.5 426.167,999.5 423.5,999.5C 423.5,998.5 423.5,997.5 423.5,996.5C 420.833,996.5 418.167,996.5 415.5,996.5C 415.5,997.5 415.5,998.5 415.5,999.5C 407.5,999.5 399.5,999.5 391.5,999.5C 391.5,998.5 391.5,997.5 391.5,996.5C 378.167,996.5 364.833,996.5 351.5,996.5C 351.5,997.5 351.5,998.5 351.5,999.5C 327.5,999.5 303.5,999.5 279.5,999.5C 279.5,998.5 279.5,997.5 279.5,996.5C 276.833,996.5 274.167,996.5 271.5,996.5C 271.5,997.5 271.5,998.5 271.5,999.5C 244.833,999.5 218.167,999.5 191.5,999.5C 191.5,998.5 191.5,997.5 191.5,996.5C 167.5,996.5 143.5,996.5 119.5,996.5C 119.5,997.5 119.5,998.5 119.5,999.5C 114.167,999.5 108.833,999.5 103.5,999.5C 103.5,998.5 103.5,997.5 103.5,996.5C 95.5,996.5 87.5,996.5 79.5,996.5C 79.5,994.833 79.5,993.167 79.5,991.5C 74.1667,991.5 68.8333,991.5 63.5,991.5C 63.5,993.167 63.5,994.833 63.5,996.5C 60.8333,996.5 58.1667,996.5 55.5,996.5C 55.5,997.5 55.5,998.5 55.5,999.5C 44.8333,999.5 34.1667,999.5 23.5,999.5C 23.8286,986.096 23.162,972.762 21.5,959.5C 20.5,959.5 19.5,959.5 18.5,959.5C 18.5,935.5 18.5,911.5 18.5,887.5C 20.1667,887.5 21.8333,887.5 23.5,887.5C 23.5,882.167 23.5,876.833 23.5,871.5C 21.8333,871.5 20.1667,871.5 18.5,871.5C 18.5,863.5 18.5,855.5 18.5,847.5C 17.5,847.5 16.5,847.5 15.5,847.5C 15.5,844.833 15.5,842.167 15.5,839.5C 16.5,839.5 17.5,839.5 18.5,839.5C 18.5,815.5 18.5,791.5 18.5,767.5C 17.5,767.5 16.5,767.5 15.5,767.5C 15.5,756.833 15.5,746.167 15.5,735.5C 16.5,735.5 17.5,735.5 18.5,735.5C 18.5,719.5 18.5,703.5 18.5,687.5C 20.1667,687.5 21.8333,687.5 23.5,687.5C 24.0318,658.109 23.3651,628.775 21.5,599.5C 20.5,599.5 19.5,599.5 18.5,599.5C 18.5,586.167 18.5,572.833 18.5,559.5C 17.5,559.5 16.5,559.5 15.5,559.5C 15.5,556.833 15.5,554.167 15.5,551.5C 16.5,551.5 17.5,551.5 18.5,551.5C 18.5,548.833 18.5,546.167 18.5,543.5C 19.5,543.5 20.5,543.5 21.5,543.5C 23.2749,524.899 23.9416,506.232 23.5,487.5C 21.8333,487.5 20.1667,487.5 18.5,487.5C 18.5,466.167 18.5,444.833 18.5,423.5C 20.1667,423.5 21.8333,423.5 23.5,423.5C 23.5,418.167 23.5,412.833 23.5,407.5C 21.8333,407.5 20.1667,407.5 18.5,407.5C 18.5,404.833 18.5,402.167 18.5,399.5C 17.5,399.5 16.5,399.5 15.5,399.5C 15.5,396.833 15.5,394.167 15.5,391.5C 16.5,391.5 17.5,391.5 18.5,391.5C 18.5,383.5 18.5,375.5 18.5,367.5C 19.5,367.5 20.5,367.5 21.5,367.5C 21.5,364.833 21.5,362.167 21.5,359.5C 20.5,359.5 19.5,359.5 18.5,359.5C 18.5,351.5 18.5,343.5 18.5,335.5C 20.1667,335.5 21.8333,335.5 23.5,335.5C 23.5,332.833 23.5,330.167 23.5,327.5C 21.8333,327.5 20.1667,327.5 18.5,327.5C 18.5,290.167 18.5,252.833 18.5,215.5C 19.5,215.5 20.5,215.5 21.5,215.5C 22.8243,207.568 23.4909,199.568 23.5,191.5C 21.8333,191.5 20.1667,191.5 18.5,191.5C 18.5,183.5 18.5,175.5 18.5,167.5C 17.5,167.5 16.5,167.5 15.5,167.5C 15.5,164.833 15.5,162.167 15.5,159.5C 16.5,159.5 17.5,159.5 18.5,159.5C 18.5,138.167 18.5,116.833 18.5,95.5C 17.5,95.5 16.5,95.5 15.5,95.5C 15.5,87.5 15.5,79.5 15.5,71.5C 16.5,71.5 17.5,71.5 18.5,71.5C 18.5,66.1667 18.5,60.8333 18.5,55.5C 17.5,55.5 16.5,55.5 15.5,55.5C 15.5,44.8333 15.5,34.1667 15.5,23.5C 18.1667,23.5 20.8333,23.5 23.5,23.5C 23.5,20.8333 23.5,18.1667 23.5,15.5C 26.1667,15.5 28.8333,15.5 31.5,15.5C 31.5,13.8333 31.5,12.1667 31.5,10.5C 42.1667,10.5 52.8333,10.5 63.5,10.5C 63.5,12.1667 63.5,13.8333 63.5,15.5C 87.5,15.5 111.5,15.5 135.5,15.5C 135.5,16.5 135.5,17.5 135.5,18.5C 140.833,18.5 146.167,18.5 151.5,18.5C 151.5,17.5 151.5,16.5 151.5,15.5C 156.833,15.5 162.167,15.5 167.5,15.5C 167.5,13.8333 167.5,12.1667 167.5,10.5C 178.167,10.5 188.833,10.5 199.5,10.5C 199.5,11.5 199.5,12.5 199.5,13.5C 228.775,15.3651 258.109,16.0318 287.5,15.5C 287.5,13.8333 287.5,12.1667 287.5,10.5C 295.5,10.5 303.5,10.5 311.5,10.5C 311.5,12.1667 311.5,13.8333 311.5,15.5C 319.548,15.4943 327.548,14.8276 335.5,13.5C 354.121,15.2759 372.788,15.9425 391.5,15.5C 391.5,13.8333 391.5,12.1667 391.5,10.5C 399.5,10.5 407.5,10.5 415.5,10.5C 415.5,12.1667 415.5,13.8333 415.5,15.5C 543.5,15.5 671.5,15.5 799.5,15.5C 799.5,13.8333 799.5,12.1667 799.5,10.5C 802.167,10.5 804.833,10.5 807.5,10.5C 807.5,12.1667 807.5,13.8333 807.5,15.5C 818.167,15.5 828.833,15.5 839.5,15.5C 839.5,13.8333 839.5,12.1667 839.5,10.5C 844.833,10.5 850.167,10.5 855.5,10.5C 855.5,12.1667 855.5,13.8333 855.5,15.5C 864.923,15.9369 874.256,15.2702 883.5,13.5C 900.832,16.0335 918.165,16.0335 935.5,13.5C 935.5,12.5 935.5,11.5 935.5,10.5C 938.167,10.5 940.833,10.5 943.5,10.5C 943.5,12.1667 943.5,13.8333 943.5,15.5C 967.5,15.5 991.5,15.5 1015.5,15.5C 1015.19,18.2469 1015.52,20.9135 1016.5,23.5C 1017.5,15.5242 1018.17,7.52417 1018.5,-0.5 Z"/></g>
<g><path style="opacity:1" fill="#020202" d="M 633.5,367.5 C 634.209,368.404 635.209,368.737 636.5,368.5C 636.828,356.988 636.495,345.654 635.5,334.5C 611.745,325.189 599.412,307.689 598.5,282C 601.423,251.397 617.09,230.064 645.5,218C 678.663,206.33 708.496,211.83 735,234.5C 771.825,223.663 802.158,233.33 826,263.5C 840.044,282.407 843.378,303.074 836,325.5C 826.758,344.397 811.592,355.397 790.5,358.5C 790.334,365.508 790.5,372.508 791,379.5C 804.8,371.507 819.633,366.507 835.5,364.5C 841.659,393.893 837.826,421.893 824,448.5C 823.586,448.957 823.086,449.291 822.5,449.5C 818.957,442.912 815.29,436.412 811.5,430C 816.427,417.272 818.594,404.106 818,390.5C 803.964,396.855 794.631,407.189 790,421.5C 803.825,437.142 813.491,455.142 819,475.5C 827.317,489.11 839.484,497.277 855.5,500C 872.433,501.968 889.433,502.968 906.5,503C 913.446,507.536 915.279,513.703 912,521.5C 898.228,555.934 873.061,576.434 836.5,583C 820.423,584.451 804.423,586.451 788.5,589C 771.515,594.651 759.681,605.817 753,622.5C 748.73,637.259 743.397,651.592 737,665.5C 732.079,673.255 726.245,680.255 719.5,686.5C 756.09,705.06 787.257,730.394 813,762.5C 821.697,773.56 828.031,785.893 832,799.5C 833.556,817.271 825.39,824.771 807.5,822C 796.348,818.337 787.181,811.837 780,802.5C 767.736,783.491 753.236,766.325 736.5,751C 723.902,741.532 710.235,733.865 695.5,728C 679.745,722.782 663.745,718.449 647.5,715C 578.327,694.144 540.161,647.644 533,575.5C 524.129,604.331 527.129,631.997 542,658.5C 559.195,686.363 582.695,707.196 612.5,721C 635.693,730.508 659.693,737.174 684.5,741C 685.516,741.519 686.182,742.353 686.5,743.5C 684.164,768.355 672.164,786.855 650.5,799C 630.384,810.778 608.718,816.445 585.5,816C 573.005,816.335 563.171,811.502 556,801.5C 552.292,786.083 557.792,775.249 572.5,769C 576.057,767.592 579.724,766.592 583.5,766C 592.198,765.22 600.865,764.22 609.5,763C 610.872,762.598 612.205,762.098 613.5,761.5C 614.521,760.998 614.688,760.332 614,759.5C 596.882,743.046 580.382,725.88 564.5,708C 490.513,698.012 442.013,657.512 419,586.5C 416.391,575.842 413.891,565.175 411.5,554.5C 405.337,573.669 395.004,590.169 380.5,604C 364.09,616.018 345.757,620.351 325.5,617C 307.07,613.116 290.07,605.949 274.5,595.5C 265.089,609.08 253.755,620.913 240.5,631C 220.413,645.939 198.079,651.272 173.5,647C 155.408,640.55 151.075,629.05 160.5,612.5C 164.301,608.096 168.968,604.93 174.5,603C 183.685,600.358 193.018,598.358 202.5,597C 211.755,593.122 219.922,587.622 227,580.5C 241.349,564.453 253.182,546.787 262.5,527.5C 270.95,531.89 279.617,536.057 288.5,540C 292.756,541.807 297.089,543.307 301.5,544.5C 303.076,529.032 307.076,514.199 313.5,500C 263.107,513.104 219.941,500.604 184,462.5C 160.19,432.275 150.857,397.942 156,359.5C 159.916,340.007 161.249,320.34 160,300.5C 156.363,278.235 147.697,258.235 134,240.5C 132.457,238.911 132.457,237.577 134,236.5C 190.411,228.809 240.577,242.976 284.5,279C 300.342,292.891 313.176,309.058 323,327.5C 330.901,346.541 339.567,365.208 349,383.5C 360.983,403.151 377.15,418.318 397.5,429C 432.107,426.567 463.774,434.9 492.5,454C 506.833,466.333 521.167,478.667 535.5,491C 553.151,503.057 571.817,504.724 591.5,496C 607.737,487.105 621.571,475.272 633,460.5C 631.915,454.632 629.915,448.966 627,443.5C 617.111,417.879 614.278,391.546 618.5,364.5C 623.382,366.128 628.382,367.128 633.5,367.5 Z"/></g>
<g><path style="opacity:1" fill="#f1f5f7" d="M 668.5,377.5 C 668.794,353.474 668.46,329.474 667.5,305.5C 655.46,302.634 647.294,295.301 643,283.5C 640.685,274.618 641.351,265.952 645,257.5C 647.465,253.563 649.632,249.563 651.5,245.5C 675.94,233.621 697.773,237.288 717,256.5C 720.936,261.37 724.102,266.704 726.5,272.5C 746.434,251.908 768.101,250.075 791.5,267C 801.395,274.287 808.228,283.787 812,295.5C 815.258,314.876 807.425,326.709 788.5,331C 781.05,331.909 773.717,331.409 766.5,329.5C 765.5,358.826 765.167,388.159 765.5,417.5C 749.106,413.654 732.773,409.487 716.5,405C 700.6,395.553 684.6,386.387 668.5,377.5 Z"/></g>
<g><path style="opacity:1" fill="#aaacad" d="M 651.5,245.5 C 649.632,249.563 647.465,253.563 645,257.5C 641.351,265.952 640.685,274.618 643,283.5C 647.294,295.301 655.46,302.634 667.5,305.5C 668.46,329.474 668.794,353.474 668.5,377.5C 666.742,377.123 665.075,376.456 663.5,375.5C 662.167,355.167 662.167,334.833 663.5,314.5C 664.981,313.52 666.315,312.353 667.5,311C 652.879,312.797 640.712,308.297 631,297.5C 622.497,279.654 625.997,264.488 641.5,252C 644.691,249.574 648.025,247.407 651.5,245.5 Z"/></g>
<g><path style="opacity:1" fill="#f1f5f8" d="M 178.5,260.5 C 209.058,265.784 236.724,277.618 261.5,296C 275.94,307.934 287.606,322.101 296.5,338.5C 286.722,338.069 277.889,334.735 270,328.5C 269.093,338.934 269.76,349.267 272,359.5C 274.676,369.694 277.843,379.694 281.5,389.5C 256.282,385.108 235.282,373.275 218.5,354C 217.833,353.333 217.167,353.333 216.5,354C 213.387,362.181 212.054,370.681 212.5,379.5C 212.191,390.29 214.191,400.623 218.5,410.5C 217.998,411.521 217.332,411.688 216.5,411C 206.85,399.91 204.683,402.076 210,417.5C 219.851,440.686 237.018,455.186 261.5,461C 245.265,468.402 230.265,466.402 216.5,455C 193.76,434.473 182.427,408.806 182.5,378C 182.979,363.727 184.479,349.56 187,335.5C 189.904,309.788 187.071,284.788 178.5,260.5 Z"/></g>
<g><path style="opacity:1" fill="#0b0b0c" d="M 685.5,314.5 C 690.635,313.426 694.468,315.093 697,319.5C 697.667,335.833 697.667,352.167 697,368.5C 695.02,373.906 691.186,375.739 685.5,374C 683.19,372.363 681.69,370.196 681,367.5C 680.333,351.5 680.333,335.5 681,319.5C 682.059,317.341 683.559,315.674 685.5,314.5 Z"/></g>
<g><path style="opacity:1" fill="#050405" d="M 731.5,319.5 C 736.742,318.271 740.575,319.937 743,324.5C 743.667,341.5 743.667,358.5 743,375.5C 740.459,380.069 736.625,381.569 731.5,380C 730.333,378.833 729.167,377.667 728,376.5C 727.333,358.5 727.333,340.5 728,322.5C 729.145,321.364 730.312,320.364 731.5,319.5 Z"/></g>
<g><path style="opacity:1" fill="#6f7073" d="M 635.5,334.5 C 636.495,345.654 636.828,356.988 636.5,368.5C 635.209,368.737 634.209,368.404 633.5,367.5C 635.477,356.884 636.144,345.884 635.5,334.5 Z"/></g>
<g><path style="opacity:1" fill="#f1f4f7" d="M 644.5,403.5 C 668.81,408.974 689.31,420.974 706,439.5C 708.671,442.837 710.837,446.504 712.5,450.5C 711.635,451.583 710.635,451.749 709.5,451C 695.564,441.865 680.898,434.031 665.5,427.5C 664.776,430.451 664.943,433.451 666,436.5C 667.971,442.079 670.137,447.579 672.5,453C 669.628,456.372 666.294,459.206 662.5,461.5C 652.487,443.46 646.487,424.127 644.5,403.5 Z"/></g>
<g><path style="opacity:1" fill="#f0f3f5" d="M 415.5,459.5 C 442.308,458.831 464.808,468.165 483,487.5C 485.248,490.328 487.248,493.328 489,496.5C 489.688,497.332 489.521,497.998 488.5,498.5C 469.01,482.166 446.51,473.166 421,471.5C 393.943,472.695 371.943,483.695 355,504.5C 349.941,511.228 345.274,518.228 341,525.5C 344.386,502.761 355.886,485.261 375.5,473C 388.125,466.02 401.458,461.52 415.5,459.5 Z"/></g>
<g><path style="opacity:1" fill="#f2f4f6" d="M 755.5,456.5 C 770.395,458.034 782.562,464.7 792,476.5C 798.131,485.93 804.631,495.097 811.5,504C 807.559,503.201 803.893,501.534 800.5,499C 791.768,489.599 782.435,480.932 772.5,473C 764.154,468.915 755.488,465.748 746.5,463.5C 748.988,460.433 751.988,458.099 755.5,456.5 Z"/></g>
<g><path style="opacity:1" fill="#eff1f5" d="M 760.5,484.5 C 767.465,484.961 770.632,488.628 770,495.5C 767.928,500.143 764.428,501.643 759.5,500C 752.754,494.512 753.088,489.346 760.5,484.5 Z"/></g>
<g><path style="opacity:1" fill="#f1f5f8" d="M 807.5,525.5 C 813.312,526.577 819.312,527.243 825.5,527.5C 843.037,527.859 860.37,529.859 877.5,533.5C 878.932,533.733 879.432,534.4 879,535.5C 861.908,550.984 841.741,559.484 818.5,561C 788.822,561.002 761.156,568.335 735.5,583C 722.574,591.424 712.241,602.257 704.5,615.5C 703.596,616.209 703.263,617.209 703.5,618.5C 704.552,618.351 705.552,618.517 706.5,619C 709.693,621.917 712.526,625.084 715,628.5C 716.597,627.115 718.43,626.449 720.5,626.5C 720.246,624.599 720.58,623.933 721.5,624.5C 718.734,645.356 710.567,663.689 697,679.5C 669.678,668.841 646.344,652.508 627,630.5C 609.923,610.034 595.59,587.701 584,563.5C 582.972,561.156 582.306,558.823 582,556.5C 601.407,573.082 623.907,581.582 649.5,582C 638.632,573.244 629.632,562.911 622.5,551C 633.817,551.425 645.151,551.425 656.5,551C 663.72,550.394 670.72,549.061 677.5,547C 663.933,536.438 651.266,524.771 639.5,512C 646.415,510.26 653.415,508.927 660.5,508C 675.833,507.333 691.167,507.333 706.5,508C 740.153,514.031 773.82,519.865 807.5,525.5 Z"/></g>
<g><path style="opacity:1" fill="#414745" d="M 807.5,525.5 C 813.75,525.184 819.75,525.85 825.5,527.5C 819.312,527.243 813.312,526.577 807.5,525.5 Z"/></g>
<g><path style="opacity:1" fill="#050506" d="M 405.5,599.5 C 432.109,672.084 483.775,714.417 560.5,726.5C 539.552,730.971 518.886,729.804 498.5,723C 458.678,710.176 428.012,685.842 406.5,650C 396.441,653.081 386.108,655.414 375.5,657C 343.053,661.377 312.72,655.377 284.5,639C 277.198,632.015 277.864,626.181 286.5,621.5C 293.945,624.389 301.278,627.555 308.5,631C 336.65,640.76 362.983,637.427 387.5,621C 394.841,614.837 400.841,607.671 405.5,599.5 Z"/></g>
<g><path style="opacity:1" fill="#a9aaad" d="M 721.5,624.5 C 720.58,623.933 720.246,624.599 720.5,626.5C 718.43,626.449 716.597,627.115 715,628.5C 712.526,625.084 709.693,621.917 706.5,619C 705.552,618.517 704.552,618.351 703.5,618.5C 703.263,617.209 703.596,616.209 704.5,615.5C 704.369,616.239 704.536,616.906 705,617.5C 706.952,615.106 709.452,613.606 712.5,613C 717.172,611.492 721.839,610.992 726.5,611.5C 724.667,615.886 723,620.219 721.5,624.5 Z"/></g>
<g><path style="opacity:1" fill="#040304" d="M 250.5,664.5 C 297.426,665.452 342.426,675.285 385.5,694C 422.743,709.027 457.243,728.527 489,752.5C 492.384,763.92 488.217,770.086 476.5,771C 426.036,735.939 371.036,710.272 311.5,694C 290.983,689.629 270.316,686.296 249.5,684C 244.041,679.417 243.041,673.917 246.5,667.5C 247.901,666.479 249.235,665.479 250.5,664.5 Z"/></g>
<g><path style="opacity:1" fill="#040405" d="M 190.5,708.5 C 261.665,711.289 327.665,731.123 388.5,768C 397.834,774.33 398.834,781.663 391.5,790C 388.783,792.076 385.783,792.743 382.5,792C 322.627,755.488 257.627,734.821 187.5,730C 182.206,726.565 180.373,721.732 182,715.5C 183.851,711.843 186.684,709.51 190.5,708.5 Z"/></g>
</svg>
